# xmcd CD database file
#
# Track frame offsets:
#	150
#	30998
#	55189
#	72284
#	105839
#	138584
#	155085
#	185265
#	206742
#	241322
#	267954
#	296907
#
# Disc length: 4326 seconds
#
# Revision: 1
# Processed by: cddbd v1.5.1PL0 Copyright (c) Steve Scherf et al.
# Submitted via: CDex 1.51
#
DISCID=ad10e40c
DTITLE=Fania - Recopilacion Fania (Disco 2)
DYEAR=1900
DGENRE=Salsa
TTITLE0=Periodico de ayer
TTITLE1=Cueste lo que cueste
TTITLE2=El Raton
TTITLE3=Pedro Navajas
TTITLE4=Las caras lindas
TTITLE5=Sabor gitano
TTITLE6=Plastico
TTITLE7=No soy para ti
TTITLE8=Juanito Alimaña
TTITLE9=Panameña
TTITLE10=Yambeque
TTITLE11=Guaguanco del Adios
EXTD=
EXTT0=
EXTT1=
EXTT2=
EXTT3=
EXTT4=
EXTT5=
EXTT6=
EXTT7=
EXTT8=
EXTT9=
EXTT10=
EXTT11=
PLAYORDER=
